<?xml version="1.0" encoding="iso-8859-1"?>
<!-- Generator: Adobe Illustrator 19.0.0, SVG Export Plug-In . SVG Version: 6.00 Build 0)  -->
<svg version="1.1" id="Layer_1" xmlns="http://www.w3.org/2000/svg" xmlns:xlink="http://www.w3.org/1999/xlink" x="0px" y="0px"
	 viewBox="0 0 512 512" style="enable-background:new 0 0 512 512;" xml:space="preserve">
<path style="fill:#515262;" d="M148.122,22.617L148.122,22.617c-69.245,0-125.379,56.134-125.379,125.379v57.048H273.5v-57.048
	C273.5,78.75,217.367,22.617,148.122,22.617z"/>
<path style="opacity:0.1;enable-background:new    ;" d="M148.002,22.982h0.059c-9.259,0-18.372,0.83-27.059,2.735
	c56.28,12.339,98.318,62.293,98.318,122.278v57.302h53.939v-57.302C273.261,78.75,217.247,22.982,148.002,22.982z"/>
<path style="fill:#E6B696;" d="M41.006,172.118c-17.006,0-30.792,13.787-30.792,30.792l0,0c0,17.006,13.786,30.792,30.792,30.792
	h14.974v-61.584H41.006z"/>
<path style="fill:#FF6465;" d="M296.244,457.02c-16.46-40.614-49.139-72.922-90.004-88.888l-0.646-0.245H90.649
	C49.484,383.765,16.547,416.194,0,457.02H296.244z"/>
<path style="fill:#E6B696;" d="M180.711,360.564v-57.851h-65.177v57.851c-8.564,1.778-16.881,4.235-24.884,7.323
	c6.948,25.225,30.039,43.759,57.472,43.759s50.524-18.534,57.472-43.759C197.59,364.8,189.275,362.342,180.711,360.564z"/>
<path style="fill:#A5EB78;" d="M215.756,457.02c16.46-40.614,49.139-72.922,90.004-88.888l0.646-0.245h114.945
	c41.164,15.878,74.102,48.307,90.649,89.132H215.756z"/>
<path style="fill:#E6B696;" d="M331.289,360.564v-57.851h65.177v57.851c8.564,1.778,16.881,4.235,24.884,7.323
	c-6.948,25.225-30.039,43.759-57.472,43.759s-50.524-18.534-57.472-43.759C314.41,364.8,322.725,362.342,331.289,360.564z"/>
<path style="opacity:0.1;enable-background:new    ;" d="M115.758,302.388v53.666c9.709,2.515,21.136,3.856,32.364,3.856
	s22.654-1.341,32.364-3.857v-53.666h-64.727V302.388z"/>
<path style="opacity:0.1;enable-background:new    ;" d="M331.515,302.388v53.666c9.709,2.515,21.136,3.857,32.364,3.857
	c11.228,0,22.654-1.341,32.364-3.856v-53.666h-64.727V302.388z"/>
<path style="fill:#F0C5A6;" d="M225.332,121.809c-10.661,0-19.303-8.642-19.303-19.303c0,10.661-8.642,19.303-19.303,19.303
	c-10.661,0-19.303-8.642-19.303-19.303c0,10.661-8.642,19.303-19.303,19.303s-19.303-8.642-19.303-19.303
	c0,10.661-8.642,19.303-19.303,19.303s-19.303-8.642-19.303-19.303c0,10.661-8.642,19.303-19.303,19.303
	c-6.225,0-11.746-2.959-15.276-7.533c-9.352,15.105-14.755,32.912-14.755,51.982v54.048c0,59.227,48.013,107.24,107.241,107.24
	s107.241-48.013,107.241-107.24v-54.048c0-19.071-5.404-36.877-14.755-51.982C237.078,118.85,231.557,121.809,225.332,121.809z"/>
<path style="fill:#FFD782;" d="M363.879,22.617L363.879,22.617c-69.245,0-125.379,56.134-125.379,125.379v57.048h250.757v-57.048
	C489.257,78.75,433.122,22.617,363.879,22.617z"/>
<path style="opacity:0.1;enable-background:new    ;" d="M363.759,22.982h0.059c-9.259,0-18.372,0.83-27.059,2.735
	c56.28,12.339,98.319,62.293,98.319,122.278v57.302h53.939v-57.302C489.018,78.75,433.004,22.982,363.759,22.982z"/>
<path style="fill:#E6B696;" d="M470.994,172.118c17.006,0,30.792,13.787,30.792,30.792l0,0c0,17.006-13.786,30.792-30.792,30.792
	h-14.974v-61.584H470.994z"/>
<path style="fill:#F0C5A6;" d="M286.668,121.809c10.661,0,19.303-8.642,19.303-19.303c0,10.661,8.642,19.303,19.303,19.303
	c10.661,0,19.303-8.642,19.303-19.303c0,10.661,8.642,19.303,19.303,19.303c10.661,0,19.303-8.642,19.303-19.303
	c0,10.661,8.642,19.303,19.303,19.303c10.661,0,19.303-8.642,19.303-19.303c0,10.661,8.642,19.303,19.303,19.303
	c6.225,0,11.746-2.959,15.276-7.533c9.352,15.105,14.755,32.912,14.755,51.982v54.048c0,59.227-48.013,107.24-107.241,107.24
	s-107.241-48.013-107.241-107.24v-54.048c0-19.071,5.404-36.877,14.755-51.982C274.922,118.85,280.443,121.809,286.668,121.809z"/>
<path style="fill:#5A4146;" d="M256,54.98L256,54.98c-69.245,0-125.379,56.133-125.379,125.379v57.048h250.757v-57.048
	C381.379,111.114,325.245,54.98,256,54.98z"/>
<path style="opacity:0.1;enable-background:new    ;" d="M255.88,55.346h0.059c-9.259,0-18.372,0.83-27.059,2.735
	c56.28,12.339,98.318,62.293,98.318,122.278v57.302h53.939v-57.302C381.139,111.114,325.125,55.346,255.88,55.346z"/>
<g>
	<path style="fill:#E6B273;" d="M148.884,204.482c-17.006,0-30.792,13.787-30.792,30.792l0,0c0,17.006,13.786,30.792,30.792,30.792
		h14.974v-61.584H148.884z"/>
	<path style="fill:#E6B273;" d="M363.116,204.482c17.006,0,30.792,13.787,30.792,30.792l0,0c0,17.006-13.786,30.792-30.792,30.792
		h-14.974v-61.584H363.116z"/>
</g>
<path style="fill:#6AB2CC;" d="M404.123,489.383c-16.46-40.614-49.139-72.922-90.004-88.888l-0.646-0.245H198.528
	c-41.164,15.878-74.102,48.307-90.649,89.132H404.123z"/>
<path style="fill:#F0C087;" d="M288.589,392.928v-57.851h-65.177v57.851c-8.564,1.778-16.881,4.235-24.884,7.323
	c6.948,25.225,30.039,43.759,57.472,43.759s50.524-18.534,57.472-43.759C305.469,397.163,297.154,394.706,288.589,392.928z"/>
<path style="opacity:0.1;enable-background:new    ;" d="M223.636,334.751v53.666c9.709,2.515,21.136,3.856,32.364,3.856
	c11.228,0,22.655-1.341,32.364-3.857V334.75h-64.727V334.751z"/>
<path style="fill:#F0C087;" d="M333.211,154.172c-10.661,0-19.303-8.642-19.303-19.303c0,10.661-8.642,19.303-19.303,19.303
	c-10.661,0-19.303-8.642-19.303-19.303c0,10.661-8.642,19.303-19.303,19.303c-10.661,0-19.303-8.642-19.303-19.303
	c0,10.661-8.642,19.303-19.303,19.303c-10.661,0-19.303-8.642-19.303-19.303c0,10.661-8.642,19.303-19.303,19.303
	c-6.225,0-11.746-2.959-15.276-7.533c-9.352,15.105-14.755,32.912-14.755,51.982v54.048c0,59.227,48.013,107.24,107.241,107.24
	s107.241-48.013,107.241-107.24v-54.048c0-19.071-5.404-36.877-14.755-51.982C344.957,151.213,339.435,154.172,333.211,154.172z"/>
<g>
	<path style="fill:#5A4146;" d="M256,305.181c-12.721,0-24.142-2.543-30.552-6.803c-3.721-2.474-4.734-7.495-2.26-11.217
		c2.471-3.721,7.494-4.732,11.216-2.26c2.97,1.974,10.995,4.098,21.596,4.098c10.601,0,18.626-2.124,21.597-4.098
		c3.721-2.474,8.742-1.461,11.216,2.261c2.473,3.722,1.461,8.744-2.262,11.216C280.141,302.638,268.72,305.181,256,305.181z"/>
	<path style="fill:#5A4146;" d="M229.311,221.201c-1.802,0-3.615-0.599-5.118-1.827c-1.78-1.456-7.53-3.624-16.071-3.624
		c-8.539,0-14.29,2.167-16.072,3.624c-3.456,2.826-8.556,2.317-11.384-1.145c-2.829-3.46-2.315-8.557,1.145-11.385
		c5.574-4.557,15.41-7.276,26.313-7.276c10.904,0,20.742,2.721,26.316,7.279c3.459,2.829,3.97,7.926,1.141,11.385
		C233.979,220.186,231.654,221.201,229.311,221.201z"/>
</g>
<circle style="fill:#353640;" cx="208.119" cy="236.189" r="11.745"/>
<path style="fill:#5A4146;" d="M282.689,221.201c-2.344,0-4.668-1.013-6.268-2.969c-2.829-3.46-2.317-8.557,1.141-11.385
	c5.574-4.558,15.41-7.279,26.316-7.279c10.902,0,20.741,2.721,26.314,7.277c3.46,2.829,3.971,7.926,1.143,11.384
	c-2.826,3.46-7.924,3.974-11.385,1.142c-1.781-1.456-7.531-3.623-16.071-3.623c-8.541,0-14.291,2.167-16.071,3.624
	C286.304,220.602,284.491,221.201,282.689,221.201z"/>
<circle style="fill:#353640;" cx="303.883" cy="236.189" r="11.745"/>
<g>
</g>
<g>
</g>
<g>
</g>
<g>
</g>
<g>
</g>
<g>
</g>
<g>
</g>
<g>
</g>
<g>
</g>
<g>
</g>
<g>
</g>
<g>
</g>
<g>
</g>
<g>
</g>
<g>
</g>
</svg>
