<?xml version="1.0" encoding="iso-8859-1"?>
<!-- Generator: Adobe Illustrator 19.0.0, SVG Export Plug-In . SVG Version: 6.00 Build 0)  -->
<svg version="1.1" id="Layer_1" xmlns="http://www.w3.org/2000/svg" xmlns:xlink="http://www.w3.org/1999/xlink" x="0px" y="0px"
	 viewBox="0 0 512 512" style="enable-background:new 0 0 512 512;" xml:space="preserve">
<path style="fill:#C6A860;" d="M33.391,511.998V155.824c0-6.147,4.983-11.13,11.13-11.13h55.652V66.781
	c0-6.147,4.983-11.13,11.13-11.13h100.174h89.043h100.174c6.147,0,11.13,4.983,11.13,11.13v77.913h55.652
	c6.147,0,11.13,4.983,11.13,11.13v356.174H33.391z"/>
<path style="fill:#D8BF77;" d="M256,511.998H33.391V155.824c0-6.147,4.983-11.13,11.13-11.13h55.652V66.781
	c0-6.147,4.983-11.13,11.13-11.13h100.174H256V511.998z"/>
<path style="fill:#AA8E55;" d="M222.609,417.39v94.609H100.174V417.39c0-33.81,27.408-61.217,61.217-61.217l0,0
	C195.201,356.172,222.609,383.58,222.609,417.39z M111.304,289.39v-77.913c0-6.147-4.983-11.13-11.13-11.13
	c-6.147,0-11.13,4.983-11.13,11.13v77.913c0,6.147,4.983,11.13,11.13,11.13C106.321,300.52,111.304,295.537,111.304,289.39z
	 M178.087,289.39c6.147,0,11.13-4.983,11.13-11.13V166.955c0-6.147-4.983-11.13-11.13-11.13c-6.147,0-11.13,4.983-11.13,11.13
	v111.304C166.957,284.406,171.94,289.39,178.087,289.39z M256,155.824c-6.147,0-11.13,4.983-11.13,11.13v111.304
	c0,6.147,4.983,11.13,11.13,11.13s11.13-4.983,11.13-11.13V166.955C267.13,160.807,262.147,155.824,256,155.824z M333.913,155.824
	c-6.147,0-11.13,4.983-11.13,11.13v111.304c0,6.147,4.983,11.13,11.13,11.13s11.13-4.983,11.13-11.13V166.955
	C345.043,160.807,340.06,155.824,333.913,155.824z M411.826,200.346c-6.147,0-11.13,4.983-11.13,11.13v77.913
	c0,6.147,4.983,11.13,11.13,11.13c6.147,0,11.13-4.983,11.13-11.13v-77.913C422.957,205.329,417.973,200.346,411.826,200.346z"/>
<path style="fill:#89643B;" d="M411.826,417.39v94.609H289.391V417.39c0-33.81,27.408-61.217,61.217-61.217l0,0
	C384.418,356.172,411.826,383.58,411.826,417.39z M333.913,289.39c6.147,0,11.13-4.983,11.13-11.13V166.955
	c0-6.147-4.983-11.13-11.13-11.13s-11.13,4.983-11.13,11.13v111.304C322.783,284.406,327.766,289.39,333.913,289.39z
	 M411.826,200.346c-6.147,0-11.13,4.983-11.13,11.13v77.913c0,6.147,4.983,11.13,11.13,11.13c6.147,0,11.13-4.983,11.13-11.13
	v-77.913C422.957,205.329,417.972,200.346,411.826,200.346z M256,155.824V289.39c6.147,0,11.13-4.983,11.13-11.13V166.955
	C267.13,160.807,262.146,155.824,256,155.824z"/>
<path style="fill:#D8962B;" d="M310.189,42.144l-19.549,26.143c-0.285,0.382-0.441,0.845-0.443,1.321l-0.177,32.643
	c-0.008,1.52-1.504,2.586-2.943,2.096l-30.904-10.514c-0.451-0.154-0.939-0.158-1.394-0.013l-31.1,9.919
	c-1.448,0.462-2.923-0.631-2.903-2.152l0.45-32.64c0.007-0.476-0.14-0.943-0.417-1.329l-19.044-26.513
	c-0.887-1.234-0.303-2.975,1.15-3.425l30.481-9.442c0.91-0.282,1.706-0.848,2.271-1.616L254.562,0.91
	c0.9-1.225,2.736-1.208,3.613,0.035l18.823,26.671c0.275,0.39,0.667,0.68,1.12,0.83l30.99,10.256
	C310.548,39.174,311.099,40.926,310.189,42.144z"/>
<path style="fill:#EDB311;" d="M201.775,41.104c-0.887-1.234-0.303-2.975,1.15-3.425l30.481-9.443
	c0.91-0.282,1.706-0.848,2.271-1.616l18.895-25.714c0.364-0.496,0.884-0.778,1.429-0.867v93.762
	c-0.398-0.099-0.816-0.108-1.21,0.018l-31.1,9.919c-1.448,0.462-2.923-0.631-2.903-2.152l0.45-32.64
	c0.007-0.476-0.14-0.943-0.417-1.329L201.775,41.104z M500.87,489.737H11.13c-6.147,0-11.13,4.983-11.13,11.13
	c0,6.147,4.983,11.13,11.13,11.13H500.87c6.147,0,11.13-4.983,11.13-11.13C512,494.72,507.017,489.737,500.87,489.737z"/>
<g>
</g>
<g>
</g>
<g>
</g>
<g>
</g>
<g>
</g>
<g>
</g>
<g>
</g>
<g>
</g>
<g>
</g>
<g>
</g>
<g>
</g>
<g>
</g>
<g>
</g>
<g>
</g>
<g>
</g>
</svg>
