<?xml version="1.0" encoding="iso-8859-1"?>
<!-- Generator: Adobe Illustrator 19.0.0, SVG Export Plug-In . SVG Version: 6.00 Build 0)  -->
<svg version="1.1" id="Layer_1" xmlns="http://www.w3.org/2000/svg" xmlns:xlink="http://www.w3.org/1999/xlink" x="0px" y="0px"
	 viewBox="0 0 512 512" style="enable-background:new 0 0 512 512;" xml:space="preserve">
<g>
	<g>
		<path d="M494.895,378.735v-14.74c0-29.868-24.299-54.167-54.167-54.167h-38.374c0.315-0.884,0.596-1.784,0.801-2.716
			l17.525-76.673c1.719-7.802-0.597-15.857-6.19-21.546l-23.573-23.991c-3.032-3.088-7.995-3.13-11.082-0.097
			c-3.088,3.033-3.132,7.995-0.097,11.082l23.575,23.993c1.865,1.895,2.635,4.583,2.075,7.126l-17.524,76.664
			c-0.912,4.118-5.071,6.905-9.349,5.964c-4.222-0.934-6.897-5.128-5.977-9.289l15.4-67.101c0.807-3.323-0.196-6.891-2.568-9.263
			l-40.312-41.034c-2.226-2.265-5.6-2.962-8.542-1.767c-2.942,1.196-4.872,4.051-4.885,7.228l-0.491,121.417h-15.673l0.435-108.586
			c0.001-0.057,0.001-0.116,0.001-0.173l0.202-50.391c0.012-3.098,1.549-5.874,4.002-7.241c3.089-1.714,6.962-1.163,9.426,1.348
			l22.204,22.591c3.033,3.087,7.996,3.131,11.082,0.095c3.087-3.033,3.129-7.996,0.096-11.082l-22.2-22.586
			c-7.38-7.522-18.984-9.196-28.226-4.065c-2.9,1.614-5.363,3.828-7.301,6.444c-0.221,0.247-0.432,0.505-0.624,0.784l-56.559,82.396
			l-69.268,59.908c-9.709,8.392-11.121,23.156-3.15,32.912c4.487,5.496,11.129,8.649,18.222,8.649c5.638,0,11.096-2.03,15.378-5.724
			l71.871-62.174c1.512-1.309,2.854-2.809,3.995-4.466l15.074-21.956l-0.333,83.317h-47.177c-4.328,0-7.837,3.509-7.837,7.837v7.054
			l-85.044-0.21c-12.932,0-23.479,10.524-23.51,23.46c0,0.042,0.005,0.081,0.006,0.122c-0.048,3.907,0.878,7.784,2.769,11.327
			c2.958,5.539,7.895,9.595,13.903,11.421l11.212,3.407h-43.328c6.333-6.847,10.212-15.995,10.212-26.036
			c0-21.165-17.219-38.384-38.384-38.384c-21.165,0-38.383,17.221-38.383,38.386c0,10.04,3.88,19.188,10.212,26.036H33.959
			c-9.074,0-17.602,3.532-24.021,9.951C3.529,390.617,0,399.144,0,408.204c0,14.614,9.28,27.102,22.256,31.88v19.31
			c0,4.328,3.509,7.837,7.837,7.837h80.666c4.328,0,7.837-3.509,7.837-7.837c0-4.328-3.509-7.837-7.837-7.837H37.93v-9.394h225.762
			l6.576,9.394H158.124c-4.328,0-7.837,3.509-7.837,7.837c0,4.328,3.509,7.837,7.837,7.837h324.054c4.328,0,7.837-3.509,7.837-7.837
			v-19.401c4.47-1.681,8.57-4.305,12.04-7.783c6.413-6.414,9.944-14.938,9.944-24.005C512,395.94,505.306,384.71,494.895,378.735z
			 M347.226,207.521l24.753,25.195L357.247,296.9c-0.987,4.461-0.625,8.909,0.806,12.925h-11.241L347.226,207.521z M272.136,239.585
			c-0.388,0.563-0.826,1.053-1.337,1.496l-71.86,62.164c-1.831,1.58-3.801,1.911-5.131,1.911c-2.367,0-4.584-1.052-6.083-2.889
			c-2.654-3.248-2.089-8.245,1.262-11.141l69.831-60.395c0.066-0.057,0.131-0.115,0.194-0.174c0.538-0.497,1-1.02,1.412-1.596
			c0.028-0.04,0.056-0.079,0.085-0.12l39.841-58.041l-0.112,27.854L272.136,239.585z M244.778,340.391v9.224l-30.6-9.3
			L244.778,340.391z M92.615,325.498c12.523,0,22.711,10.188,22.711,22.711s-10.188,22.711-22.711,22.711
			c-12.523,0-22.711-10.188-22.711-22.711S80.091,325.498,92.615,325.498z M33.959,426.49c-10.082,0-18.286-8.204-18.286-18.286
			c0-4.88,1.903-9.474,5.353-12.932c3.452-3.452,8.046-5.354,12.933-5.354h181.726l14.524,4.415l22.51,32.157H33.959z
			 M297.974,450.138c-3.541,2.48-8.438,1.614-10.915-1.925l-12.754-18.221c-0.032-0.048-0.066-0.094-0.099-0.142l-32.707-46.724
			c-1.005-1.437-2.463-2.494-4.141-3.004l-18.093-5.499c-0.057-0.019-0.115-0.036-0.173-0.052l-61.63-18.731
			c-2.003-0.608-3.65-1.96-4.635-3.807s-1.193-3.965-0.584-5.969c1.027-3.378,4.142-5.559,7.503-5.559
			c0.752,0,1.518,0.11,2.275,0.34l85.076,25.857c1.67,0.507,3.14,1.574,4.141,3.003l48.665,69.522
			c0.468,0.669,0.828,1.397,1.067,2.166C301.984,444.657,300.781,448.173,297.974,450.138z M474.342,451.557H315.658
			c1.055-2.982,1.508-6.173,1.287-9.394h157.396V451.557z M490.967,421.132c-3.447,3.454-8.037,5.357-12.926,5.357H310.116
			l-7.314-10.449h59.425c4.328,0,7.837-3.509,7.837-7.837c0-4.328-3.509-7.837-7.837-7.837H291.83l-27.757-39.652
			c-1.045-1.493-2.271-2.844-3.623-4.048v-31.166h47.115c0.011,0,0.022,0,0.032,0h31.315c0.01,0,0.022,0,0.032,0h101.784
			c21.225,0,38.494,17.268,38.494,38.494v36.373H407.51c-4.328,0-7.837,3.509-7.837,7.837c0,4.328,3.509,7.837,7.837,7.837h79.548
			c4.328,0,7.837-3.509,7.837-7.837v-7.052c0.923,2.195,1.432,4.584,1.432,7.052C496.327,413.085,494.426,417.674,490.967,421.132z"
			/>
	</g>
</g>
<g>
	<g>
		<path d="M322.726,44.77c-21.165,0-38.384,17.219-38.384,38.384s17.219,38.384,38.384,38.384c21.164,0,38.383-17.219,38.383-38.384
			S343.891,44.77,322.726,44.77z M322.726,105.865c-12.523,0-22.711-10.188-22.711-22.711c0-12.523,10.188-22.711,22.711-22.711
			c12.522,0,22.71,10.188,22.71,22.711C345.436,95.677,335.248,105.865,322.726,105.865z"/>
	</g>
</g>
<g>
</g>
<g>
</g>
<g>
</g>
<g>
</g>
<g>
</g>
<g>
</g>
<g>
</g>
<g>
</g>
<g>
</g>
<g>
</g>
<g>
</g>
<g>
</g>
<g>
</g>
<g>
</g>
<g>
</g>
</svg>
